# xmcd CD database file
#
# Track frame offsets:
#	150
#	12357
#	21195
#	41322
#	53852
#	68672
#	88027
#	105370
#	121860
#	136425
#	151360
#	164475
#	188120
#
# Disc length: 2760 seconds
#
# Revision: 0
# Processed by: cddbd v1.5.1PL0 Copyright (c) Steve Scherf et al.
# Submitted via: CDex 1.51
#
DISCID=a00ac60d
DTITLE=HERBINEAUX and PENN - ARIZONA BLUES TRAIN
DYEAR=1900
DGENRE=Country
TTITLE0=THE COWBOY
TTITLE1=FLIGHT OF THE KILLER BEE
TTITLE2=PHANTOM RANCH
TTITLE3=MISS KITTY S EUROPEAN WALTZ
TTITLE4=ARIZONA ANNE
TTITLE5=ARIZONA BLUES TRAIN
TTITLE6=DESERT BLOOM
TTITLE7=LA FIESTA DE TUCSON
TTITLE8=IRWIN S OTTERS
TTITLE9=I DREAM ABOUT YOU
TTITLE10=AND ALONG CAME MARIE
TTITLE11=THE BIG COUNTRY
TTITLE12=SLIPPERY SALLY
EXTD=
EXTT0=
EXTT1=
EXTT2=
EXTT3=
EXTT4=
EXTT5=
EXTT6=
EXTT7=
EXTT8=
EXTT9=
EXTT10=
EXTT11=
EXTT12=
PLAYORDER=
